<svg width="521" height="416" viewBox="0 0 521 416" fill="none" xmlns="http://www.w3.org/2000/svg">
<path d="M479 23H453C452.448 23 452 23.4477 452 24V50C452 50.5523 452.448 51 453 51H479C479.552 51 480 50.5523 480 50V24C480 23.4477 479.552 23 479 23Z" fill="#16CABB"/>
<path d="M520 80H494C493.448 80 493 80.4477 493 81V107C493 107.552 493.448 108 494 108H520C520.552 108 521 107.552 521 107V81C521 80.4477 520.552 80 520 80Z" fill="#13CDB8"/>
<path d="M109.733 6.79999C100.267 10.5333 91.7333 18.9333 88.1333 28.5333C85.3333 36.1333 85.3333 36.1333 85.3333 190.667V345.2L88.4 346.933C93.0667 349.6 117.6 349.867 131.333 347.467C149.467 344.4 175.733 335.467 197.2 325.2C207.733 320.133 216.667 316 217.067 316C218.8 316 209.2 324.933 198.8 333.067C175.2 351.6 147.467 365.467 118.933 372.933C102 377.333 73.6 378 60 374.133C41.0667 368.933 27.4667 358.667 19.8667 343.867C15.8667 336.133 15.4667 334 14.9333 321.2C14.5333 309.867 14.9333 304.8 17.2 295.867C21.2 280.267 33.0667 256.933 45.2 240.933C60 221.467 60.2667 220.667 46.9333 234.533C16.6667 265.733 0.133333 299.733 0 330C0 349.067 5.33333 364.533 16.9333 378.933C31.7333 397.333 61.4667 410.667 96.4 414.533C104.533 415.467 153.2 416 231.067 416C368.8 416 360.4 416.667 371.867 405.467C376.133 401.333 379.2 396.667 381.067 391.6C383.867 384.4 384 381.467 384 347.333C384 327.2 383.733 310.667 383.467 310.667C383.067 310.667 375.867 314 367.2 318C358.533 322.133 350.933 325.2 350.133 324.933C349.333 324.667 350.133 323.6 352 322.667C363.067 316.933 400.933 287.333 422.4 267.733C462.4 231.2 489.733 191.2 492.667 164.4C493.867 154.8 491.067 144 486 138L482.667 134L484.667 139.867C490.267 156.133 483.733 177.067 466 200.533C450.667 220.933 420.4 248.667 394 266.533C376.8 278.267 351.867 293.6 351.2 292.933C350.933 292.667 353.2 290.4 356.4 288C359.467 285.467 366.933 278.933 373.067 273.467L384 263.6V182.4V101.333H344C313.2 101.333 302.933 100.933 299.6 99.4667C294 97.2 288.533 90.6667 286.667 84.2667C285.867 81.4667 285.333 63.4667 285.333 41.6V3.99999L201.067 4.13333C119.867 4.13333 116.4 4.26666 109.733 6.79999ZM228.267 101.867C231.2 103.2 233.733 109.867 232.667 113.2C230.8 119.333 226.667 120 187.6 120C152.667 120 150.933 119.867 147.467 117.2C142.267 113.067 143.333 103.867 149.333 101.6C152.8 100.267 225.467 100.533 228.267 101.867ZM268.933 145.6C272.8 149.2 272.8 154.267 269.067 158.267L266.267 161.333H208C151.333 161.333 149.733 161.2 146.933 158.667C143.2 155.2 143.2 149.733 146.933 145.733L149.733 142.667H207.867C265.6 142.667 265.867 142.667 268.933 145.6ZM339.733 178.267C340 179.867 336.933 189.067 332.933 198.933C324.667 218.933 270.133 355.333 268.933 358.933C267.733 362.267 264.133 361.867 262.667 358.267C260 351.867 241.467 310.933 237.867 303.467L234 295.6L212 291.067C199.867 288.667 183.6 285.333 175.733 283.733C162.8 281.2 161.333 280.533 161.333 278C161.333 275.867 164.4 273.467 175.733 267.2C190.933 258.667 300.933 195.6 323.333 182.533C330.667 178.133 337.333 174.933 338 175.067C338.8 175.333 339.467 176.8 339.733 178.267ZM230.533 188.8C234.267 193.6 234 196.8 229.867 200.667L226.267 204H188C151.467 204 149.733 203.867 146.933 201.333C143.2 197.867 143.2 192.4 146.933 188.4L149.733 185.333H188.8H227.867L230.533 188.8Z" fill="#0B6BF7"/>
<path d="M417.867 81.7333C417.6 82.6667 417.467 90.2667 417.6 98.6667L418 113.867L434.667 114H451.333L451.733 96.9333L452.133 80H435.333C422.8 80 418.4 80.4 417.867 81.7333Z" fill="black"/>
<path d="M402.667 158V173.467L417.067 173.067L431.333 172.667V158V143.333L417.067 142.933L402.667 142.533V158Z" fill="black"/>
<g filter="url(#filter0_d_2024_208)">
<path d="M155 279L346 168L266.5 365L230.5 295.5L155 279Z" fill="white"/>
</g>
<path d="M225.818 100H152.182C147.663 100 144 104.477 144 110C144 115.523 147.663 120 152.182 120H225.818C230.337 120 234 115.523 234 110C234 104.477 230.337 100 225.818 100Z" fill="white"/>
<path d="M264.434 142H152.634C147.884 142 144.034 146.477 144.034 152C144.034 157.523 147.884 162 152.634 162H264.434C269.184 162 273.034 157.523 273.034 152C273.034 146.477 269.184 142 264.434 142Z" fill="white"/>
<path d="M224.886 185H153.114C148.08 185 144 189.253 144 194.5C144 199.747 148.08 204 153.114 204H224.886C229.92 204 234 199.747 234 194.5C234 189.253 229.92 185 224.886 185Z" fill="white"/>
<path d="M431.893 142H403.107C402.496 142 402 142.528 402 143.179V173.821C402 174.472 402.496 175 403.107 175H431.893C432.504 175 433 174.472 433 173.821V143.179C433 142.528 432.504 142 431.893 142Z" fill="#1468F3"/>
<path d="M450.8 79H417.2C416.537 79 416 79.5223 416 80.1667V112.833C416 113.478 416.537 114 417.2 114H450.8C451.463 114 452 113.478 452 112.833V80.1667C452 79.5223 451.463 79 450.8 79Z" fill="#1468F3"/>
<g filter="url(#filter1_d_2024_208)">
<path d="M285 4V76.5455C285 90.5455 296.571 102 310.714 102H384L285 4Z" fill="url(#paint0_linear_2024_208)"/>
</g>
<defs>
<filter id="filter0_d_2024_208" x="151" y="168" width="199" height="221" filterUnits="userSpaceOnUse" color-interpolation-filters="sRGB">
<feFlood flood-opacity="0" result="BackgroundImageFix"/>
<feColorMatrix in="SourceAlpha" type="matrix" values="0 0 0 0 0 0 0 0 0 0 0 0 0 0 0 0 0 0 127 0" result="hardAlpha"/>
<feOffset dy="20"/>
<feGaussianBlur stdDeviation="2"/>
<feComposite in2="hardAlpha" operator="out"/>
<feColorMatrix type="matrix" values="0 0 0 0 0 0 0 0 0 0 0 0 0 0 0 0 0 0 0.25 0"/>
<feBlend mode="normal" in2="BackgroundImageFix" result="effect1_dropShadow_2024_208"/>
<feBlend mode="normal" in="SourceGraphic" in2="effect1_dropShadow_2024_208" result="shape"/>
</filter>
<filter id="filter1_d_2024_208" x="277" y="0" width="115" height="114" filterUnits="userSpaceOnUse" color-interpolation-filters="sRGB">
<feFlood flood-opacity="0" result="BackgroundImageFix"/>
<feColorMatrix in="SourceAlpha" type="matrix" values="0 0 0 0 0 0 0 0 0 0 0 0 0 0 0 0 0 0 127 0" result="hardAlpha"/>
<feOffset dy="4"/>
<feGaussianBlur stdDeviation="4"/>
<feComposite in2="hardAlpha" operator="out"/>
<feColorMatrix type="matrix" values="0 0 0 0 0 0 0 0 0 0 0 0 0 0 0 0 0 0 0.25 0"/>
<feBlend mode="normal" in2="BackgroundImageFix" result="effect1_dropShadow_2024_208"/>
<feBlend mode="normal" in="SourceGraphic" in2="effect1_dropShadow_2024_208" result="shape"/>
</filter>
<linearGradient id="paint0_linear_2024_208" x1="285" y1="4" x2="382.995" y2="102.995" gradientUnits="userSpaceOnUse">
<stop stop-color="#A8D4FF"/>
<stop offset="1" stop-color="#6AA9FF"/>
</linearGradient>
</defs>
</svg>
