<svg width="1614" height="416" viewBox="0 0 1614 416" fill="none" xmlns="http://www.w3.org/2000/svg">
<path d="M479 23H453C452.448 23 452 23.4477 452 24V50C452 50.5523 452.448 51 453 51H479C479.552 51 480 50.5523 480 50V24C480 23.4477 479.552 23 479 23Z" fill="#16CABB"/>
<path d="M520 80H494C493.448 80 493 80.4477 493 81V107C493 107.552 493.448 108 494 108H520C520.552 108 521 107.552 521 107V81C521 80.4477 520.552 80 520 80Z" fill="#13CDB8"/>
<path d="M109.733 6.79999C100.267 10.5333 91.7333 18.9333 88.1333 28.5333C85.3333 36.1333 85.3333 36.1333 85.3333 190.667V345.2L88.4 346.933C93.0667 349.6 117.6 349.867 131.333 347.467C149.467 344.4 175.733 335.467 197.2 325.2C207.733 320.133 216.667 316 217.067 316C218.8 316 209.2 324.933 198.8 333.067C175.2 351.6 147.467 365.467 118.933 372.933C102 377.333 73.6 378 60 374.133C41.0667 368.933 27.4667 358.667 19.8667 343.867C15.8667 336.133 15.4667 334 14.9333 321.2C14.5333 309.867 14.9333 304.8 17.2 295.867C21.2 280.267 33.0667 256.933 45.2 240.933C60 221.467 60.2667 220.667 46.9333 234.533C16.6667 265.733 0.133333 299.733 0 330C0 349.067 5.33333 364.533 16.9333 378.933C31.7333 397.333 61.4667 410.667 96.4 414.533C104.533 415.467 153.2 416 231.067 416C368.8 416 360.4 416.667 371.867 405.467C376.133 401.333 379.2 396.667 381.067 391.6C383.867 384.4 384 381.467 384 347.333C384 327.2 383.733 310.667 383.467 310.667C383.067 310.667 375.867 314 367.2 318C358.533 322.133 350.933 325.2 350.133 324.933C349.333 324.667 350.133 323.6 352 322.667C363.067 316.933 400.933 287.333 422.4 267.733C462.4 231.2 489.733 191.2 492.667 164.4C493.867 154.8 491.067 144 486 138L482.667 134L484.667 139.867C490.267 156.133 483.733 177.067 466 200.533C450.667 220.933 420.4 248.667 394 266.533C376.8 278.267 351.867 293.6 351.2 292.933C350.933 292.667 353.2 290.4 356.4 288C359.467 285.467 366.933 278.933 373.067 273.467L384 263.6V182.4V101.333H344C313.2 101.333 302.933 100.933 299.6 99.4667C294 97.2 288.533 90.6667 286.667 84.2667C285.867 81.4667 285.333 63.4667 285.333 41.6V3.99999L201.067 4.13333C119.867 4.13333 116.4 4.26666 109.733 6.79999ZM228.267 101.867C231.2 103.2 233.733 109.867 232.667 113.2C230.8 119.333 226.667 120 187.6 120C152.667 120 150.933 119.867 147.467 117.2C142.267 113.067 143.333 103.867 149.333 101.6C152.8 100.267 225.467 100.533 228.267 101.867ZM268.933 145.6C272.8 149.2 272.8 154.267 269.067 158.267L266.267 161.333H208C151.333 161.333 149.733 161.2 146.933 158.667C143.2 155.2 143.2 149.733 146.933 145.733L149.733 142.667H207.867C265.6 142.667 265.867 142.667 268.933 145.6ZM339.733 178.267C340 179.867 336.933 189.067 332.933 198.933C324.667 218.933 270.133 355.333 268.933 358.933C267.733 362.267 264.133 361.867 262.667 358.267C260 351.867 241.467 310.933 237.867 303.467L234 295.6L212 291.067C199.867 288.667 183.6 285.333 175.733 283.733C162.8 281.2 161.333 280.533 161.333 278C161.333 275.867 164.4 273.467 175.733 267.2C190.933 258.667 300.933 195.6 323.333 182.533C330.667 178.133 337.333 174.933 338 175.067C338.8 175.333 339.467 176.8 339.733 178.267ZM230.533 188.8C234.267 193.6 234 196.8 229.867 200.667L226.267 204H188C151.467 204 149.733 203.867 146.933 201.333C143.2 197.867 143.2 192.4 146.933 188.4L149.733 185.333H188.8H227.867L230.533 188.8Z" fill="#0B6BF7"/>
<path d="M417.867 81.7333C417.6 82.6667 417.467 90.2667 417.6 98.6667L418 113.867L434.667 114H451.333L451.733 96.9333L452.133 80H435.333C422.8 80 418.4 80.4 417.867 81.7333Z" fill="black"/>
<path d="M661.333 98.1332C637.867 104.533 624 125.067 624 153.333V161.067L612 161.6C605.467 161.867 599.6 162.667 599.067 163.2C598.533 163.733 597.867 170.8 597.6 178.8L597.067 193.333H610.533H624V253.333V313.333H640H656L656.4 276.933C656.533 257.067 656.667 232.533 656.667 222.667C656.667 212.8 656.8 202.133 657.067 198.933L657.333 193.333H677.333H697.333V177.333V161.467L677.067 161.067L656.667 160.667L656.8 153.733C657.067 144.133 658.133 140.933 662.133 136C667.467 129.733 672.4 127.867 682.8 127.867C688 127.867 693.333 128.267 694.8 128.667C697.333 129.467 697.467 128.933 697.067 113.067L696.667 96.6666L682.667 96.3999C673.6 96.2666 666.133 96.7999 661.333 98.1332Z" fill="#0B1D46"/>
<path d="M735.333 97.3335C733.067 98.0001 729.2 100.667 726.667 103.333C722.8 107.333 722.133 109.067 721.733 115.6C721.067 125.333 724 131.467 731.333 135.733C740.8 141.2 752.133 138.4 759.2 128.8C763.333 123.467 763.067 111.467 758.933 105.6C753.733 98.4001 743.6 94.9335 735.333 97.3335Z" fill="#0B1D46"/>
<path d="M795.333 97.6001C794.933 98.5334 794.8 147.333 794.933 206L795.333 312.667H811.333H827.333V204.667V96.6667L811.6 96.2667C799.867 96.0001 795.733 96.4001 795.333 97.6001Z" fill="#0B1D46"/>
<path d="M1228.67 98.6668C1224 100.533 1218.53 107.467 1217.2 112.933C1215.07 122.8 1219.6 132 1228.4 136.133C1235.73 139.467 1239.73 139.333 1246.67 135.6C1265.2 125.867 1258.27 97.2001 1237.33 97.4668C1234 97.4668 1230.13 98.0001 1228.67 98.6668Z" fill="#0865FC"/>
<path d="M1289.6 204.8L1290 312.267L1305.33 312.133C1313.73 312 1320.93 311.467 1321.33 311.2C1321.73 310.8 1322 262.533 1322 203.867V97.3333H1305.6H1289.33L1289.6 204.8Z" fill="#0865FC"/>
<path d="M1562 124.267C1556.13 125.6 1549.07 127.333 1546.4 128.133L1541.33 129.467V146V162.667H1527.33H1513.2L1513.47 178L1513.6 193.333H1527.33H1541.2L1541.73 236.933C1542.27 284.133 1542.53 286.133 1549.73 296.933C1553.07 301.867 1556.13 304.4 1563.2 308C1572.13 312.533 1572.67 312.667 1590.53 313.067C1600.53 313.333 1609.47 312.933 1610.4 312.267C1611.47 311.6 1612.27 306.267 1612.53 296.933L1613.2 282.667H1599.87C1575.47 282.667 1574.27 280.667 1573.6 242.667C1573.33 227.6 1573.47 210.4 1574 204.267L1574.93 193.333H1593.47H1612V178V162.8L1593.2 162.4L1574.4 162L1573.87 142.133C1573.6 131.2 1573.2 122.133 1572.93 122C1572.8 121.867 1567.87 122.933 1562 124.267Z" fill="#0865FC"/>
<path d="M402.667 158V173.467L417.067 173.067L431.333 172.667V158V143.333L417.067 142.933L402.667 142.533V158Z" fill="black"/>
<path d="M911.333 161.067C898.533 164.8 889.467 170.533 878.667 181.333C861.867 198 855.467 214 855.6 238.667C855.6 250 856.267 254.667 859.067 263.333C867.467 288.8 886.933 307.2 912.667 314C923.067 316.667 948.8 316.667 959.333 314C972.4 310.667 983.6 304.4 992.8 295.333C997.467 290.8 1001.33 286.133 1001.33 285.2C1001.2 284.133 995.6 280 988.667 275.867L976.133 268.267L970 274.133C951.2 291.467 915.2 290.267 899.2 271.6C894.267 265.733 889.333 256 889.333 252C889.333 249.333 890.133 249.333 948.533 249.333H1007.6L1008.53 244.267C1010.53 231.467 1004.93 206.533 996.933 193.2C989.333 180.267 974 167.867 959.333 162.533C948 158.533 922.667 157.733 911.333 161.067ZM957.067 195.067C966.667 200.8 973.067 209.467 975.333 219.6L976.267 224H932.8C897.333 224 889.333 223.733 889.333 222.267C889.333 218.267 897.867 203.733 902.4 200C917.6 187.333 940.933 185.333 957.067 195.067Z" fill="#0B1D46"/>
<path d="M1103.33 160.4C1093.33 163.067 1085.6 167.467 1077.07 175.733L1069.33 183.067V172.933V162.667H1052.67H1036V268.667V374.667H1052.67H1069.33V332.933L1069.47 291.333L1072.27 295.2C1077.07 301.733 1090.4 310.533 1099.6 313.333C1110.27 316.667 1128 316.933 1139.33 314C1164.67 307.333 1184.4 286.4 1191.47 258.667C1194.53 247.2 1194.4 227.2 1191.33 216C1182.13 182.133 1156 160.533 1122.67 159.2C1114.8 158.933 1107.47 159.333 1103.33 160.4ZM1132.67 193.467C1142 196.933 1152 206.133 1156.67 215.467C1160.4 222.667 1160.67 224.533 1160.67 237.333C1160.67 250.133 1160.27 252 1156.8 259.2C1142.4 288.533 1104.13 294.933 1081.6 271.733C1063.47 253.2 1064 220.933 1082.67 203.467C1097.2 189.867 1114.13 186.533 1132.67 193.467Z" fill="#0865FC"/>
<path d="M1406.93 161.333C1380.8 168.267 1360.93 186.933 1352.4 212.667C1349.47 221.6 1348.93 225.733 1348.93 238C1348.93 250.4 1349.47 254.267 1352.53 263.067C1359.47 283.6 1372.67 298.933 1391.2 308C1403.73 314.267 1412 316 1427.87 316C1456 315.867 1478.4 303.867 1493.6 280.8C1508.53 257.733 1509.6 225.2 1496.27 199.467C1490.13 187.867 1476.8 174.133 1465.73 168.267C1448.13 158.933 1426 156.4 1406.93 161.333ZM1448.27 195.733C1463.47 203.2 1472 216.667 1473.07 234.667C1474.53 263.333 1454.8 285.2 1427.07 285.333C1413.73 285.333 1404.53 281.733 1395.6 272.933C1385.47 262.933 1382.27 255.467 1381.6 240.4C1380.8 221.2 1386.67 208.267 1400.67 198.667C1410.13 192.133 1415.33 190.667 1428 191.067C1437.87 191.333 1440.67 192 1448.27 195.733Z" fill="#0865FC"/>
<path d="M725.333 237.333V313.333H741.333H757.333V237.333V161.333H741.333H725.333V237.333Z" fill="#0B1D46"/>
<path d="M1221.2 168.267C1221.2 171.467 1221.2 205.2 1221.2 243.333C1221.33 304.533 1221.47 312.667 1223.33 312.533C1224.4 312.4 1231.6 312.267 1239.33 312.133L1253.33 312V237.333V162.667H1237.33H1221.33L1221.2 168.267Z" fill="#0865FC"/>
<g filter="url(#filter0_d_2024_207)">
<path d="M155 279L346 168L266.5 365L230.5 295.5L155 279Z" fill="white"/>
</g>
<path d="M225.818 100H152.182C147.663 100 144 104.477 144 110C144 115.523 147.663 120 152.182 120H225.818C230.337 120 234 115.523 234 110C234 104.477 230.337 100 225.818 100Z" fill="white"/>
<path d="M264.434 142H152.634C147.884 142 144.034 146.477 144.034 152C144.034 157.523 147.884 162 152.634 162H264.434C269.184 162 273.034 157.523 273.034 152C273.034 146.477 269.184 142 264.434 142Z" fill="white"/>
<path d="M224.886 185H153.114C148.08 185 144 189.253 144 194.5C144 199.747 148.08 204 153.114 204H224.886C229.92 204 234 199.747 234 194.5C234 189.253 229.92 185 224.886 185Z" fill="white"/>
<path d="M431.893 142H403.107C402.496 142 402 142.528 402 143.179V173.821C402 174.472 402.496 175 403.107 175H431.893C432.504 175 433 174.472 433 173.821V143.179C433 142.528 432.504 142 431.893 142Z" fill="#1468F3"/>
<path d="M450.8 79H417.2C416.537 79 416 79.5223 416 80.1667V112.833C416 113.478 416.537 114 417.2 114H450.8C451.463 114 452 113.478 452 112.833V80.1667C452 79.5223 451.463 79 450.8 79Z" fill="#1468F3"/>
<g filter="url(#filter1_d_2024_207)">
<path d="M285 4V76.5455C285 90.5455 296.571 102 310.714 102H384L285 4Z" fill="url(#paint0_linear_2024_207)"/>
</g>
<defs>
<filter id="filter0_d_2024_207" x="151" y="168" width="199" height="221" filterUnits="userSpaceOnUse" color-interpolation-filters="sRGB">
<feFlood flood-opacity="0" result="BackgroundImageFix"/>
<feColorMatrix in="SourceAlpha" type="matrix" values="0 0 0 0 0 0 0 0 0 0 0 0 0 0 0 0 0 0 127 0" result="hardAlpha"/>
<feOffset dy="20"/>
<feGaussianBlur stdDeviation="2"/>
<feComposite in2="hardAlpha" operator="out"/>
<feColorMatrix type="matrix" values="0 0 0 0 0 0 0 0 0 0 0 0 0 0 0 0 0 0 0.25 0"/>
<feBlend mode="normal" in2="BackgroundImageFix" result="effect1_dropShadow_2024_207"/>
<feBlend mode="normal" in="SourceGraphic" in2="effect1_dropShadow_2024_207" result="shape"/>
</filter>
<filter id="filter1_d_2024_207" x="277" y="0" width="115" height="114" filterUnits="userSpaceOnUse" color-interpolation-filters="sRGB">
<feFlood flood-opacity="0" result="BackgroundImageFix"/>
<feColorMatrix in="SourceAlpha" type="matrix" values="0 0 0 0 0 0 0 0 0 0 0 0 0 0 0 0 0 0 127 0" result="hardAlpha"/>
<feOffset dy="4"/>
<feGaussianBlur stdDeviation="4"/>
<feComposite in2="hardAlpha" operator="out"/>
<feColorMatrix type="matrix" values="0 0 0 0 0 0 0 0 0 0 0 0 0 0 0 0 0 0 0.25 0"/>
<feBlend mode="normal" in2="BackgroundImageFix" result="effect1_dropShadow_2024_207"/>
<feBlend mode="normal" in="SourceGraphic" in2="effect1_dropShadow_2024_207" result="shape"/>
</filter>
<linearGradient id="paint0_linear_2024_207" x1="285" y1="4" x2="382.995" y2="102.995" gradientUnits="userSpaceOnUse">
<stop stop-color="#A8D4FF"/>
<stop offset="1" stop-color="#6AA9FF"/>
</linearGradient>
</defs>
</svg>
